<svg width="16" height="16" viewBox="0 0 16 16" fill="none" xmlns="http://www.w3.org/2000/svg">
<path d="M6.42999 10.8027L5.84615 12.8462L5.26232 10.8027C4.95567 9.72945 4.1167 8.89049 3.04342 8.58383L1 8L3.04342 7.41617C4.11671 7.10951 4.95567 6.27055 5.26232 5.19726L5.84615 3.15385L6.42999 5.19727C6.73664 6.27055 7.5756 7.10951 8.64889 7.41617L10.6923 8L8.64889 8.58383C7.5756 8.89049 6.73664 9.72945 6.42999 10.8027Z" stroke="#BE58F5" stroke-width="1.5" stroke-linecap="round" stroke-linejoin="round"/>
<path d="M12.4935 5.64121L12.3077 6.38462L12.1218 5.64121C11.9048 4.77305 11.2269 4.0952 10.3588 3.87816L9.61539 3.69231L10.3588 3.50646C11.2269 3.28942 11.9048 2.61156 12.1218 1.74341L12.3077 1L12.4935 1.74341C12.7106 2.61156 13.3884 3.28942 14.2566 3.50646L15 3.69231L14.2566 3.87816C13.3884 4.0952 12.7106 4.77305 12.4935 5.64121Z" stroke="#BE58F5" stroke-width="1.5" stroke-linecap="round" stroke-linejoin="round"/>
<path d="M11.5138 14.1509L11.2308 15L10.9477 14.1509C10.7869 13.6685 10.4084 13.29 9.92606 13.1292L9.07692 12.8462L9.92606 12.5631C10.4084 12.4023 10.7869 12.0238 10.9477 11.5414L11.2308 10.6923L11.5138 11.5414C11.6746 12.0238 12.0531 12.4023 12.5355 12.5631L13.3846 12.8462L12.5355 13.1292C12.0531 13.29 11.6746 13.6685 11.5138 14.1509Z" stroke="#BE58F5" stroke-width="1.5" stroke-linecap="round" stroke-linejoin="round"/>
</svg>
